# xmcd CD database file
#
# Track frame offsets:
#	182
#	16972
#	30682
#	42857
#	61612
#	78842
#	92392
#	108687
#	120857
#	137647
#	156727
#	172067
#	188102
#	206282
#	223377
#	240932
#
# Disc length: 3369 seconds
#
# Revision: 4
# Processed by: cddbd v1.5.2PL0 Copyright (c) Steve Scherf et al.
# Submitted via: CDex 1.51
#
DISCID=c10d2710,ce0d2710
DTITLE=Karel Gott - Seine größten Hits
DYEAR=1994
DGENRE=Schlager
TTITLE0=Nie Mehr Bolero
TTITLE1=Einmal Um Die Ganze Welt
TTITLE2=Weißt Du Wohin
TTITLE3=Das Mädchen Aus Athen
TTITLE4=Babicka
TTITLE5=Lady Carneval
TTITLE6=Das Sind Die Schönsten Jahre
TTITLE7=Wie Der Teufel Es Will
TTITLE8=Wenn Ich Dich Nicht Hätte
TTITLE9=Was Damals  War
TTITLE10=Schicksalsmelodie
TTITLE11=Fang Das Licht (Duett mit Darinka)
TTITLE12=Eine Liebe Ist Viele Tränen Wert
TTITLE13=Nun Bist Du Da
TTITLE14=Du Bist Für Mich Wie Die Sonne Am Morgen
TTITLE15=Die Biene Maja
EXTD=YEAR: 1994
EXTT0=
EXTT1=
EXTT2=
EXTT3=
EXTT4=
EXTT5=
EXTT6=
EXTT7=
EXTT8=
EXTT9=
EXTT10=
EXTT11=
EXTT12=
EXTT13=
EXTT14=
EXTT15=
PLAYORDER=
